<svg xmlns="http://www.w3.org/2000/svg" viewBox="0 0 56.95 56.92"><title>facebook</title><g id="图层_2" data-name="图层 2"><g id="图层_2-2" data-name="图层 2"><path d="M0,54.14V2.8A3.72,3.72,0,0,1,2.8,0H54.14A3.74,3.74,0,0,1,57,2.8V54.14c-.62,2.22-2.19,2.82-4.34,2.78-4.08-.09-8.17,0-12.26,0h-1v-22h7.32l.76-5.54c.1-.71.2-1.43.35-2.13s0-1-.8-1H40.28c-.31,0-.62,0-.94,0,0-1.83,0-3.55,0-5.27a7.34,7.34,0,0,1,.32-2.44,2.93,2.93,0,0,1,2.93-1.75c1.85-.06,3.71,0,5.6,0V8.92a18.35,18.35,0,0,0-2-.31c-.78,0-1.58.11-2.36.05a20.12,20.12,0,0,0-5.79.3,8.92,8.92,0,0,0-5.26,3.32A9.54,9.54,0,0,0,30.6,17.9c-.09,2.44-.12,4.88-.17,7.32v1H23v8.7h7.42v22H29.3c-8.32,0-16.64,0-25,0C2.19,56.93.62,56.36,0,54.14Z"/></g></g></svg>