<svg xmlns="http://www.w3.org/2000/svg" viewBox="0 0 56.57 42.02"><title>gmail</title><g id="图层_2" data-name="图层 2"><g id="图层_2-2" data-name="图层 2"><path d="M50.23,41.86V10.06c-.64.42-1.07.68-1.47,1-6.34,4.49-12.71,9-19,13.51a2.12,2.12,0,0,1-3,0c-6.4-4.61-12.85-9.15-19.3-13.7-.28-.2-.58-.36-1.09-.67,0,.63-.07,1.08-.07,1.53V40.44C6.31,42,6.31,42,4.79,42,1.84,42,0,40.24,0,37.29,0,26.66,0,16,0,5.4,0,3.57.19,1.83,1.8.6A1.94,1.94,0,0,1,4.46.51C12,5.83,19.61,11.08,27.17,16.4a1.67,1.67,0,0,0,2.28,0Q40.63,8.51,51.87.7c1.46-1,2.15-.95,3.38.33a4.77,4.77,0,0,1,1.29,3.48l0,23.43c0,3,0,5.95,0,8.93C56.56,40.68,54.28,42.54,50.23,41.86Z"/></g></g></svg>