<svg xmlns="http://www.w3.org/2000/svg" viewBox="0 0 56.95 56.9"><title>linkedin</title><g id="图层_2" data-name="图层 2"><g id="图层_2-2" data-name="图层 2"><path d="M0,53.61V3.34A1.94,1.94,0,0,0,.13,3,3.36,3.36,0,0,1,3,.13,1.94,1.94,0,0,0,3.34,0H53.61A2.67,2.67,0,0,0,54,.14,3.37,3.37,0,0,1,56.81,3a2.67,2.67,0,0,0,.14.36V53.61a.62.62,0,0,0-.1.2c-.61,2.24-1.72,3.09-4.07,3.09H3.83a3.52,3.52,0,0,1-3.7-3A2.88,2.88,0,0,0,0,53.61ZM44.5,44.5a4.09,4.09,0,0,0,0-.46c0-4.82.05-9.64,0-14.45a22.57,22.57,0,0,0-.67-4.76,6.28,6.28,0,0,0-4.77-5,12.12,12.12,0,0,0-4.2-.21c-2,.19-3.77.71-4.6,2.85V19.58H23.14V44.49H30.3V30.77a12.3,12.3,0,0,1,.12-1.49,2.78,2.78,0,0,1,2.42-2.41,6.86,6.86,0,0,1,1.92,0,2.67,2.67,0,0,1,2.35,2.07,6.61,6.61,0,0,1,.21,1.59q0,6.64,0,13.29v.68Zm-24.93,0V19.56H12.46V44.5ZM16,10.63a3.53,3.53,0,0,0-3.63,3.59,3.61,3.61,0,0,0,7.21.06A3.53,3.53,0,0,0,16,10.63Z"/></g></g></svg>