<svg xmlns="http://www.w3.org/2000/svg" viewBox="0 0 56.95 56.99"><title>skype</title><g id="图层_2" data-name="图层 2"><g id="图层_2-2" data-name="图层 2"><path d="M57,10V46.88c-.06.21-.14.42-.18.63a10.84,10.84,0,0,1-6.44,8.33,27.87,27.87,0,0,1-4,1.15H10.76c-.27-.06-.54-.13-.81-.18A11.12,11.12,0,0,1,1.29,50.6,13.49,13.49,0,0,1,0,44.39Q0,28,0,11.63A11.42,11.42,0,0,1,2.19,4.75,11.18,11.18,0,0,1,11.11.07C13.55,0,16,0,18.44,0q13.47,0,27,0A11.24,11.24,0,0,1,56.33,7.71C56.59,8.45,56.75,9.21,57,10ZM48,28.27c-.37-1.86-.63-3.93-1.21-5.9A19.1,19.1,0,0,0,27.24,9.27a7.79,7.79,0,0,1-4.18-.51,8.89,8.89,0,0,0-5.2-.57A11.24,11.24,0,0,0,9.18,24a3.51,3.51,0,0,1,.23,1.78,19.31,19.31,0,0,0,20.93,21.9,8,8,0,0,1,3.59.48,10.48,10.48,0,0,0,11-2c3.32-2.91,4.74-6.66,3.63-11C48,32.91,47.3,30.79,48,28.27Z"/><path d="M28.67,40.91c-2.85,0-5.39-.38-7.64-1.85a6.14,6.14,0,0,1-2.55-2.94A2.53,2.53,0,0,1,19.27,33a2.67,2.67,0,0,1,3.31.51,6.6,6.6,0,0,1,.75.91c1.69,2.55,5.23,2.86,7.57,2a3.49,3.49,0,0,0,1.21-.74c1.51-1.48,1.1-3.44-.9-4.11-1.3-.44-2.65-.71-4-1.07-1.64-.45-3.32-.82-4.92-1.41a5.67,5.67,0,0,1-4-5.56A6.07,6.07,0,0,1,22,17.41a13.14,13.14,0,0,1,13.8,1.11,5.33,5.33,0,0,1,1.64,2.15,2,2,0,0,1-.65,2.56,2.59,2.59,0,0,1-3,.11,11.45,11.45,0,0,1-1.35-1.26,6.63,6.63,0,0,0-6.94-1.44,3.43,3.43,0,0,0-1.45,1.21c-.78,1.23-.22,2.54,1.29,3,1.36.45,2.77.73,4.15,1.1,1.68.44,3.39.79,5,1.38a5.92,5.92,0,0,1,4.11,5.79A6.53,6.53,0,0,1,35,39.51,13.62,13.62,0,0,1,28.67,40.91Z"/></g></g></svg>