<svg xmlns="http://www.w3.org/2000/svg" viewBox="0 0 56.95 56.95"><title>wechat</title><g id="图层_2" data-name="图层 2"><g id="图层_2-2" data-name="图层 2"><path d="M0,28.47C0,21.89.05,15.3,0,8.71A8.47,8.47,0,0,1,6.29.31,10.39,10.39,0,0,1,8.71,0c13.17,0,26.35,0,39.52,0A8.54,8.54,0,0,1,56.8,7a11,11,0,0,1,.12,1.81c0,13.13,0,26.26,0,39.38a8.55,8.55,0,0,1-7,8.64,11,11,0,0,1-1.81.13c-13.13,0-26.25,0-39.38,0A8.54,8.54,0,0,1,.15,50,11.55,11.55,0,0,1,0,48Q0,38.25,0,28.47ZM21.93,38c0-.68,0-1.31,0-1.93a12.93,12.93,0,0,1,1.25-5.62c2.94-5.8,7.87-8.54,14.19-9.11.85-.07.91-.11.78-.95a14.52,14.52,0,0,0-5.56-9.33A18.11,18.11,0,0,0,17.94,7.32a16.83,16.83,0,0,0-10.8,5.8c-3.65,4.51-4.67,9.57-2.36,15a15.36,15.36,0,0,0,5.48,6.42,1.49,1.49,0,0,1,.7,2c-.3,1.25-.57,2.5-.85,3.75a1.45,1.45,0,0,0,.05.46c1.36-.85,2.68-1.59,3.92-2.46a5.09,5.09,0,0,1,4-.75C19.33,37.76,20.6,37.87,21.93,38ZM48.44,50l.17-.12c-.17-.46-.29-.95-.5-1.4a2.3,2.3,0,0,1,.36-2.66,9.49,9.49,0,0,1,.82-.86c5.4-4.76,5.32-12.58.4-17.62A14.86,14.86,0,0,0,40.25,23a15.23,15.23,0,0,0-13.49,5,11.51,11.51,0,0,0-3.06,9.28,12.25,12.25,0,0,0,3.93,7.69A14.71,14.71,0,0,0,40.47,49a2.48,2.48,0,0,0,.61-.15,6.47,6.47,0,0,1,6.38.7A6.75,6.75,0,0,0,48.44,50Z"/><path d="M30,19.28a2,2,0,0,1-1.92,2,2.08,2.08,0,0,1-2.06-2,2.11,2.11,0,0,1,2.05-2A2,2,0,0,1,30,19.28Z"/><path d="M16.81,19.27a2,2,0,0,1-2,2,2.07,2.07,0,0,1-2-2,2,2,0,0,1,2-2A2,2,0,0,1,16.81,19.27Z"/><path d="M33.49,32.14a1.6,1.6,0,0,1-3.2.06,1.67,1.67,0,0,1,1.6-1.7A1.69,1.69,0,0,1,33.49,32.14Z"/><path d="M44.14,32.19a1.55,1.55,0,0,1-1.61,1.56A1.58,1.58,0,0,1,41,32.11a1.62,1.62,0,0,1,1.62-1.58A1.58,1.58,0,0,1,44.14,32.19Z"/></g></g></svg>